<svg xmlns="http://www.w3.org/2000/svg" xmlns:xlink="http://www.w3.org/1999/xlink" viewBox="0 0 481.3 566.67">
<defs><linearGradient id="a" x1="378" y1="321.62" x2="378" y2="405.25" gradientUnits="userSpaceOnUse"><stop offset="0" stop-color="#dbdbdb"/><stop offset="1" stop-color="#fff"/></linearGradient><linearGradient id="b" x1="378.14" y1="194.12" x2="378.14" y2="87.53" gradientUnits="userSpaceOnUse"><stop offset="0" stop-color="#323150"/><stop offset="1" stop-color="#7e7d90"/></linearGradient><linearGradient id="c" x1="237.96" y1="194.12" x2="237.96" y2="87.53" xlink:href="#b"/><linearGradient id="d" x1="518.56" y1="194.12" x2="518.56" y2="87.53" xlink:href="#b"/><linearGradient id="e" x1="379.11" y1="240.24" x2="379.11" y2="105.41" xlink:href="#b"/><linearGradient id="f" x1="266.87" y1="240.24" x2="266.87" y2="105.41" xlink:href="#b"/><linearGradient id="g" x1="490.74" y1="240.24" x2="490.74" y2="105.41" xlink:href="#b"/><linearGradient id="h" x1="380.56" y1="253.21" x2="390.13" y2="80.46" xlink:href="#b"/></defs><path d="M570.42,52.23S527.29,32.59,460.77,21.52a85.33,85.33,0,0,0-164.16-1.47A452.58,452.58,0,0,0,185.84,52.23S96,384.55,379.18,505.78C379.18,505.78,648.8,414.34,570.42,52.23Z" transform="translate(-137.58 50.73)" style="fill:#e12a4c"/><path d="M378.78,515.94l-3.34-1.43C225,450.13,179,326.86,166.9,234.78c-13-99,8.84-181.56,9.78-185l1.19-4.4,4.18-1.82A462.34,462.34,0,0,1,289.4,11.62a94.81,94.81,0,0,1,178.71,1.53C531.79,24.42,572.6,42.79,574.35,43.59l4.34,2,1,4.66c22.8,105.33,29.46,255.14-68.26,370.7-58.64,69.34-126.36,92.88-129.21,93.85ZM193.94,59.08c-4.26,18.25-19.16,91-8.14,173.82,16.65,125.2,81.79,213.54,193.62,262.64,14-5.56,70-30.35,118.13-87.6C569.65,322.16,592,201.59,562.16,59,549.8,54,511.79,39.63,459.22,30.88l-6-1L451.62,24a75.84,75.84,0,0,0-145.91-1.3L304,28.49l-5.94.94A444.84,444.84,0,0,0,193.94,59.08Z" transform="translate(-137.58 50.73)" style="fill:#e12a4c"/><path d="M609.38,359a748,748,0,0,0-462.31,0V231.58a748,748,0,0,1,462.31,0Z" transform="translate(-137.58 50.73)" style="fill:#e12a4c"/><path d="M618.88,372l-12.43-4c-149.3-48.51-307.14-48.51-456.44,0l-12.43,4V224.68l6.56-2.13c153.14-49.76,315-49.76,468.18,0l6.56,2.13ZM378.23,312.6A755.36,755.36,0,0,1,599.89,346V238.51a733.61,733.61,0,0,0-443.33,0V346A755.43,755.43,0,0,1,378.23,312.6Z" transform="translate(-137.58 50.73)" style="fill:#e12a4c"/><path d="M379.18,505.78S648.8,414.34,570.42,52.23c0,0-188.11-85.7-384.58,0C185.84,52.23,96,384.55,379.18,505.78Z" transform="translate(-137.58 50.73)" style="fill:#323150"/><path d="M378.65,492.25S636.81,404.7,561.76,58c0,0-180.11-82-368.23,0C193.53,58,107.48,376.18,378.65,492.25Z" transform="translate(-137.58 50.73)" style="fill:#fff"/><path d="M378.61,479.57S621,396.73,550.52,68.7c0,0-169.09-77.63-345.71,0C204.81,68.7,124,369.75,378.61,479.57Z" transform="translate(-137.58 50.73)" style="fill:url(#a)"/><path d="M558.46,245.69s17.84-87.88-7.94-177c0,0-160.76-78-346.15-2,0,0-23.1,80.92-6.63,179C359.29,185.91,513.76,230.58,558.46,245.69Z" transform="translate(-137.58 50.73)" style="fill:url(#b)"/><polygon points="158.3 352.81 158.31 352.81 158.3 271.64 158.3 271.64 158.3 352.81" style="fill:#e12a4c"/><path d="M517.37,233.68c-15.77-4-34.52-8-55.64-11.25V427.35a294.4,294.4,0,0,0,58-71.16V234.28Z" transform="translate(-137.58 50.73)" style="fill:#e12a4c"/><path d="M349.47,215.94V465.35c9.21,5,18.87,9.79,29.14,14.22,0,0,12.12-4.16,30.14-14.25V216.62A565.54,565.54,0,0,0,349.47,215.94Z" transform="translate(-137.58 50.73)" style="fill:#e12a4c"/><path d="M295.88,220.91a490.15,490.15,0,0,0-57.83,12l-.19,0V359a277,277,0,0,0,58,69.52V220.91Z" transform="translate(-137.58 50.73)" style="fill:#e12a4c"/><path d="M237.86,232.56v.36l.19,0C238,232.76,237.92,232.66,237.86,232.56Z" transform="translate(-137.58 50.73)" style="fill:#e12a4c"/><path d="M237.86,232.56v.36l.19,0C238,232.76,237.92,232.66,237.86,232.56Z" transform="translate(-137.58 50.73)" style="fill:url(#c)"/><path d="M517.37,233.68l2.38.6v-4.49C519,231.12,518.16,232.37,517.37,233.68Z" transform="translate(-137.58 50.73)" style="fill:#e12a4c"/><path d="M517.37,233.68l2.38.6v-4.49C519,231.12,518.16,232.37,517.37,233.68Z" transform="translate(-137.58 50.73)" style="fill:url(#d)"/><path d="M349.47,34.1V215.94a565.54,565.54,0,0,1,59.28.68V34.75A462,462,0,0,0,349.47,34.1Z" transform="translate(-137.58 50.73)" style="fill:url(#e)"/><path d="M237.86,54.49V232.56c.06.1.13.2.19.31a490.15,490.15,0,0,1,57.83-12h0V40.25A440.27,440.27,0,0,0,237.86,54.49Z" transform="translate(-137.58 50.73)" style="fill:url(#f)"/><path d="M461.73,41.8V222.43c21.12,3.26,39.87,7.28,55.64,11.25.79-1.31,1.6-2.56,2.38-3.89v-173A452.49,452.49,0,0,0,461.73,41.8Z" transform="translate(-137.58 50.73)" style="fill:url(#g)"/><circle cx="240.92" cy="94.9" r="85.41" style="fill:#323150"/><circle cx="240.65" cy="94.9" r="78.98" style="fill:#fff"/><polygon points="207.52 83.97 220.5 123.55 261.33 123.46 273.78 84.33 240.83 59.37 207.52 83.97" style="fill:#323150"/><path d="M378.23-38.29a82.46,82.46,0,1,0,82.46,82.45A82.45,82.45,0,0,0,378.23-38.29Zm60.25,130a60.68,60.68,0,0,1,2-10.71c-14,12-22.61,12.08-22.61,12.08L401.31,75.72l11.35,20.49c-3.67,9.85-19.3,18.3-19.3,18.3,2.63-.41,8.17.57,12.14,1.41A76.75,76.75,0,0,1,351,116c4-.85,9.6-1.85,12.26-1.44,0,0-15.63-8.45-19.3-18.3l11.35-20.49L338.77,93.05S330.15,93,316.16,81a59.54,59.54,0,0,1,2,11,76.41,76.41,0,0,1-16.73-47.78c0-1.24,0-2.47.09-3.7,2.11,3.49,5.32,9.15,5.82,12,0,0,3-17.52,11.14-24.15l23.05,4.18L319.83,22.38S317.14,14.19,324-2.9c0,0-5.88,4.08-10.42,5.69a77,77,0,0,1,45.76-33c-2.72,3-7.38,7.89-10.05,9.23,0,0,17.64-2.15,26.32,3.76L378.23,6l3.49-23.73s7.07-4.92,25.43-3.22c0,0-6.25-5-8.89-9A77,77,0,0,1,442.92,2.88c-4.58-1.53-10.71-5.78-10.71-5.78,6.89,17.09,4.19,25.28,4.19,25.28L414.67,32.52l23.05-4.18c8.15,6.63,11.14,24.15,11.14,24.15.52-3,3.93-8.92,6-12.37.07,1.34.1,2.69.1,4A76.37,76.37,0,0,1,438.48,91.68Z" transform="translate(-137.58 50.73)" style="fill:#323150"/><path d="M609.38,359a748,748,0,0,0-462.31,0V231.58a748,748,0,0,1,462.31,0Z" transform="translate(-137.58 50.73)" style="fill:url(#h)"/><polygon points="241.38 169.7 249.89 194.06 277.45 194.06 255.16 209.12 263.67 233.49 241.38 218.43 219.08 233.49 227.6 209.12 205.3 194.06 232.86 194.06 241.38 169.7" style="fill:#fff"/><polygon points="319.9 179.07 325.11 200.72 348.77 203.09 328.33 214.09 333.55 235.74 315.7 220.9 295.27 231.91 304.68 211.72 286.83 196.88 310.49 199.25 319.9 179.07" style="fill:#fff"/><polygon points="160.99 179.3 171.32 199.02 194.84 195.55 177.71 211.21 188.04 230.93 167.12 220.88 149.98 236.54 154.18 214.68 133.26 204.63 156.78 201.16 160.99 179.3" style="fill:#fff"/><polygon points="386.48 190.9 390.68 210.77 412.19 213.53 393.28 223.05 397.48 242.91 381.59 228.92 362.69 238.44 371.77 220.28 355.89 206.29 377.39 209.06 386.48 190.9" style="fill:#fff"/><polygon points="95.75 193.55 105.49 211.37 126.88 207.84 111.5 222.38 121.23 240.21 102 231.37 86.62 245.92 90.11 225.92 70.87 217.08 92.27 213.55 95.75 193.55" style="fill:#fff"/><path d="M198,210v24.12q5.12-.81,10.22-1.57v63.86c-3.4.5-6.81,1-10.21,1.57v21.43q23.24-3.67,46.57-6.42V292q-5.09.6-10.17,1.24V270.44q21.08-2.67,42.21-4.57v-21q-21.14,1.91-42.21,4.57V231.14q17.19-2.17,34.43-3.84v11.61q13.59-1.32,27.21-2.31v-38Q246.86,202.24,198,210Z" transform="translate(-137.58 50.73)" style="fill:#fff"/><path d="M307.13,197.88V222q5.14-.33,10.29-.61v63.86q-5.15.28-10.29.61v21.44q49.2-3.15,98.51-2.15V269.86q-13.69-.28-27.39-.23.22,5.81.44,11.61-17.46,0-34.91.61V261.76q21.18-.69,42.39-.62v-21q-21.21-.08-42.39.62V222.46q17.28-.57,34.59-.62v11.61q13.63,0,27.27.23v-38Q356.38,194.74,307.13,197.88Z" transform="translate(-137.58 50.73)" style="fill:#fff"/><path d="M416.6,196v22.77q5.43.16,10.85.37,10.44,43.73,20.86,87.63,13,.74,26,1.75,8.49-28.8,17-57.49,8.26,30.25,16.51,60.61,13.55,1.46,27.06,3.22,10.74-41,21.47-81.83c3.26.49,6.51,1,9.77,1.51V210q-23.62-3.74-47.34-6.51v23.22q6.87.81,13.74,1.69l-11.45,36.09q-8.85-31.41-17.71-62.7-11.37-1.19-22.77-2.14-7.95,30.6-15.92,61.29Q458.85,242,453,223.09q5.81.34,11.61.76V198.39Q440.65,196.71,416.6,196Z" transform="translate(-137.58 50.73)" style="fill:#fff"/>
</svg>