<svg xmlns="http://www.w3.org/2000/svg" xmlns:xlink="http://www.w3.org/1999/xlink" viewBox="0 0 101.41 119.39"><defs><style>.a{fill:#e12a4c;}.b{fill:#323150;}.c{fill:#fff;}.d{fill:url(#a);}.e{fill:url(#b);}.f{fill:url(#c);}.g{fill:url(#d);}.h{fill:url(#e);}.i{fill:url(#f);}.j{fill:url(#g);}.k{fill:url(#h);}</style><linearGradient id="a" x1="235.05" y1="109.85" x2="235.05" y2="127.47" gradientUnits="userSpaceOnUse"><stop offset="0" stop-color="#dbdbdb"/><stop offset="1" stop-color="#fff"/></linearGradient><linearGradient id="b" x1="235.08" y1="82.98" x2="235.08" y2="60.53" gradientUnits="userSpaceOnUse"><stop offset="0" stop-color="#323150"/><stop offset="1" stop-color="#7e7d90"/></linearGradient><linearGradient id="c" x1="205.54" y1="82.98" x2="205.54" y2="60.53" xlink:href="#b"/><linearGradient id="d" x1="264.66" y1="82.98" x2="264.66" y2="60.53" xlink:href="#b"/><linearGradient id="e" x1="235.28" y1="92.7" x2="235.28" y2="64.29" xlink:href="#b"/><linearGradient id="f" x1="211.63" y1="92.7" x2="211.63" y2="64.29" xlink:href="#b"/><linearGradient id="g" x1="258.8" y1="92.7" x2="258.8" y2="64.29" xlink:href="#b"/><linearGradient id="h" x1="235.59" y1="95.43" x2="237.6" y2="59.04" xlink:href="#b"/></defs><path class="a" d="M275.59,53.09a101,101,0,0,0-23.1-6.47,18,18,0,0,0-34.59-.31,95.37,95.37,0,0,0-23.34,6.78s-18.93,70,40.74,95.56C235.3,148.65,292.1,129.38,275.59,53.09Z" transform="translate(-184.39 -31.39)"/><path class="a" d="M235.21,150.79l-.7-.3c-31.69-13.57-41.39-39.54-43.94-58.94a109.14,109.14,0,0,1,2.06-39l.25-.93.88-.39a98.19,98.19,0,0,1,22.62-6.72,20,20,0,0,1,37.65.32,101.17,101.17,0,0,1,22.39,6.42l.91.41.21,1c4.81,22.2,6.21,53.76-14.38,78.11-12.35,14.61-26.62,19.57-27.22,19.77ZM196.27,54.53a108.31,108.31,0,0,0-1.72,36.62c3.51,26.38,17.24,45,40.8,55.34A66.39,66.39,0,0,0,260.24,128c15.19-18.07,19.89-43.47,13.61-73.51a105.22,105.22,0,0,0-21.69-5.93l-1.26-.21-.34-1.23a16,16,0,0,0-30.74-.28l-.36,1.22-1.25.19A93.69,93.69,0,0,0,196.27,54.53Z" transform="translate(-184.39 -31.39)"/><path class="a" d="M283.8,117.71a157.69,157.69,0,0,0-97.41,0V90.87a157.69,157.69,0,0,1,97.41,0Z" transform="translate(-184.39 -31.39)"/><path class="a" d="M285.8,120.46l-2.62-.85a154.66,154.66,0,0,0-96.17,0l-2.62.85v-31l1.38-.45a158.7,158.7,0,0,1,98.65,0l1.38.45ZM235.1,108a159.25,159.25,0,0,1,46.7,7V92.33a154.62,154.62,0,0,0-93.41,0V115A159.26,159.26,0,0,1,235.1,108Z" transform="translate(-184.39 -31.39)"/><path class="b" d="M235.3,148.65s56.8-19.27,40.29-95.56c0,0-39.63-18.06-81,0C194.56,53.09,175.63,123.11,235.3,148.65Z" transform="translate(-184.39 -31.39)"/><path class="c" d="M235.18,145.8s54.4-18.45,38.58-91.5c0,0-37.94-17.29-77.58,0C196.18,54.3,178.05,121.34,235.18,145.8Z" transform="translate(-184.39 -31.39)"/><path class="d" d="M235.18,143.12s51.06-17.45,36.22-86.56c0,0-35.63-16.36-72.84,0C198.56,56.56,181.54,120,235.18,143.12Z" transform="translate(-184.39 -31.39)"/><path class="e" d="M273.07,93.85s3.76-18.52-1.67-37.29c0,0-33.87-16.44-72.93-.43a94.61,94.61,0,0,0-1.4,37.72C231.11,81.25,263.65,90.67,273.07,93.85Z" transform="translate(-184.39 -31.39)"/><polygon class="a" points="33.35 74.33 33.35 74.33 33.35 57.23 33.35 57.23 33.35 74.33"/><path class="a" d="M264.41,91.32c-3.32-.84-7.27-1.69-11.72-2.37v43.17a61.87,61.87,0,0,0,12.22-15V91.44Z" transform="translate(-184.39 -31.39)"/><path class="a" d="M229,87.58v52.55c1.94,1.06,4,2.06,6.14,3a42.71,42.71,0,0,0,6.35-3V87.72A119.72,119.72,0,0,0,229,87.58Z" transform="translate(-184.39 -31.39)"/><path class="a" d="M217.75,88.63a103.27,103.27,0,0,0-12.19,2.52h0v26.55a58.21,58.21,0,0,0,12.23,14.65V88.63Z" transform="translate(-184.39 -31.39)"/><path class="a" d="M205.52,91.08v.08h0A.43.43,0,0,0,205.52,91.08Z" transform="translate(-184.39 -31.39)"/><path class="f" d="M205.52,91.08v.08h0A.43.43,0,0,0,205.52,91.08Z" transform="translate(-184.39 -31.39)"/><path class="a" d="M264.41,91.32l.5.12V90.5C264.75,90.78,264.58,91,264.41,91.32Z" transform="translate(-184.39 -31.39)"/><path class="g" d="M264.41,91.32l.5.12V90.5C264.75,90.78,264.58,91,264.41,91.32Z" transform="translate(-184.39 -31.39)"/><path class="h" d="M229,49.27V87.58a119.72,119.72,0,0,1,12.49.14V49.4A97.19,97.19,0,0,0,229,49.27Z" transform="translate(-184.39 -31.39)"/><path class="i" d="M205.52,53.56V91.08a.43.43,0,0,1,0,.07,103.27,103.27,0,0,1,12.19-2.52h0V50.56A93.75,93.75,0,0,0,205.52,53.56Z" transform="translate(-184.39 -31.39)"/><path class="j" d="M252.69,50.89V89c4.45.68,8.4,1.53,11.72,2.37.17-.28.34-.54.5-.82V54.05A94.33,94.33,0,0,0,252.69,50.89Z" transform="translate(-184.39 -31.39)"/><circle class="b" cx="50.76" cy="19.99" r="17.99"/><circle class="c" cx="50.7" cy="19.99" r="16.64"/><polygon class="b" points="43.72 17.69 46.46 26.03 55.06 26.01 57.68 17.77 50.74 12.51 43.72 17.69"/><path class="b" d="M235.1,34a17.37,17.37,0,1,0,17.37,17.37A17.37,17.37,0,0,0,235.1,34ZM247.79,61.4a13,13,0,0,1,.42-2.26c-2.94,2.53-4.76,2.55-4.76,2.55L240,58l2.39,4.31c-.77,2.08-4.07,3.86-4.07,3.86a9.37,9.37,0,0,1,2.56.3,16.21,16.21,0,0,1-11.48,0,9.57,9.57,0,0,1,2.59-.3s-3.29-1.78-4.07-3.86L230.27,58l-3.49,3.65s-1.81,0-4.76-2.55a12.4,12.4,0,0,1,.43,2.31,16,16,0,0,1-3.53-10.06c0-.26,0-.52,0-.78a11,11,0,0,1,1.23,2.53s.63-3.69,2.34-5.08l4.86.88-4.58-2.14s-.57-1.73.89-5.33a11.84,11.84,0,0,1-2.2,1.2,16.24,16.24,0,0,1,9.64-7A11.06,11.06,0,0,1,229,37.66s3.72-.46,5.55.79l.55,4.9.73-5s1.49-1,5.36-.68a10.74,10.74,0,0,1-1.87-1.9,16.34,16.34,0,0,1,9.41,6.92,11.25,11.25,0,0,1-2.26-1.22c1.45,3.6.88,5.33.88,5.33l-4.58,2.14,4.86-.88c1.72,1.39,2.35,5.08,2.35,5.08a11.05,11.05,0,0,1,1.27-2.6c0,.28,0,.56,0,.85A16.08,16.08,0,0,1,247.79,61.4Z" transform="translate(-184.39 -31.39)"/><path class="k" d="M283.8,117.71a157.69,157.69,0,0,0-97.41,0V90.87a157.69,157.69,0,0,1,97.41,0Z" transform="translate(-184.39 -31.39)"/><polygon class="c" points="50.86 35.76 52.65 40.89 58.46 40.89 53.76 44.06 55.55 49.19 50.86 46.02 46.16 49.19 47.95 44.06 43.26 40.89 49.06 40.89 50.86 35.76"/><polygon class="c" points="67.4 37.73 68.5 42.29 73.48 42.79 69.18 45.11 70.28 49.67 66.52 46.54 62.21 48.86 64.19 44.61 60.43 41.48 65.42 41.98 67.4 37.73"/><polygon class="c" points="33.92 37.78 36.09 41.93 41.05 41.2 37.44 44.5 39.62 48.66 35.21 46.54 31.6 49.84 32.48 45.23 28.08 43.11 33.03 42.38 33.92 37.78"/><polygon class="c" points="81.43 40.22 82.31 44.41 86.84 44.99 82.86 46.99 83.75 51.18 80.4 48.23 76.42 50.24 78.33 46.41 74.98 43.47 79.51 44.05 81.43 40.22"/><polygon class="c" points="20.18 40.78 22.23 44.53 26.73 43.79 23.49 46.85 25.54 50.61 21.49 48.75 18.25 51.81 18.98 47.6 14.93 45.74 19.44 44.99 20.18 40.78"/><path class="c" d="M197.12,86.32V91.4l2.16-.33v13.46q-1.08.15-2.16.33v4.51q4.9-.77,9.82-1.35V103.6l-2.15.26v-4.8q4.44-.56,8.9-1V93.68c-3,.26-5.94.59-8.9,1V90.78q3.63-.45,7.26-.81v2.45q2.87-.28,5.73-.49v-8Q207.42,84.7,197.12,86.32Z" transform="translate(-184.39 -31.39)"/><path class="c" d="M220.12,83.77v5.09l2.16-.13v13.45l-2.16.13v4.52q10.37-.66,20.75-.46V98.94c-1.92,0-3.85,0-5.77,0l.09,2.45c-2.45,0-4.9,0-7.35.13V97.23c3-.09,5.95-.14,8.93-.13V92.68q-4.47,0-8.93.13V89q3.65-.12,7.28-.13v2.45c1.92,0,3.84,0,5.75,0v-8Q230.49,83.11,220.12,83.77Z" transform="translate(-184.39 -31.39)"/><path class="c" d="M243.18,83.38v4.8l2.29.07q2.19,9.23,4.39,18.47c1.83.1,3.65.22,5.48.37Q257.12,101,258.92,95l3.48,12.77c1.9.21,3.8.43,5.7.68q2.26-8.64,4.52-17.24l2.06.32V86.32c-3.32-.52-6.64-1-10-1.37v4.89c1,.12,1.94.23,2.9.36-.8,2.53-1.61,5.06-2.41,7.6q-1.87-6.61-3.73-13.21-2.4-.24-4.8-.45Q255,90.59,253.3,97.06c-.81-2.66-1.63-5.32-2.44-8l2.44.16V83.88Q248.25,83.54,243.18,83.38Z" transform="translate(-184.39 -31.39)"/></svg>